<svg id="Icons" xmlns="http://www.w3.org/2000/svg" viewBox="0 0 24 24"><defs><style>.cls-1{fill:#58595b;}</style></defs><title>Cloudy-Moon</title><path class="cls-1" d="M21.87,8.13a4.81,4.81,0,0,1-.8,1.75A6.54,6.54,0,0,0,16.5,8H15.24a6.9,6.9,0,0,0-.62-.69,7.85,7.85,0,0,0-2.44-1.65,5,5,0,0,1,3.7-3.53,1,1,0,0,1,1.2,1.17A3.76,3.76,0,0,0,17,4a3,3,0,0,0,3,3,3.76,3.76,0,0,0,.7-.08,1,1,0,0,1,.92.28A1,1,0,0,1,21.87,8.13Z"/><path class="cls-1" d="M21.21,11.67A5.49,5.49,0,0,0,16.5,9H14.74a6.61,6.61,0,0,0-.83-1A7,7,0,1,0,9,20h7.5A5.51,5.51,0,0,0,22,14.5,5.36,5.36,0,0,0,21.21,11.67Z"/></svg>